<svg xmlns="http://www.w3.org/2000/svg" viewBox="0 0 512 512">
  <defs>
    <linearGradient id="bg" x1="0" y1="0" x2="1" y2="1">
      <stop stop-color="#06264d"/>
      <stop offset="1" stop-color="#0b75eb"/>
    </linearGradient>
  </defs>
  <rect width="512" height="512" rx="112" fill="url(#bg)"/>
  <g fill="none" stroke="#fff" stroke-width="28" stroke-linecap="round">
    <path d="M256 84v344M107 170l298 172M107 342l298-172"/>
    <path d="m256 84-38 40m38-40 38 40M256 428l-38-40m38 40 38-40"/>
    <path d="m107 170 54 8m-54-8 20-50M405 342l-54-8m54 8-20 50"/>
    <path d="m107 342 54-8m-54 8 20 50M405 170l-54 8m54-8-20-50"/>
  </g>
  <circle cx="256" cy="256" r="66" fill="#34d1ff" opacity=".9"/>
  <path d="M256 210v92m-46-46h92" stroke="#fff" stroke-width="24" stroke-linecap="round"/>
</svg>
